<svg width="40" height="35" viewBox="0 0 40 35" fill="none" xmlns="http://www.w3.org/2000/svg">
    <path d="M9.09094 35V16.9742L4.29797 11.8599L0 9.02182V31.8189C0 33.579 1.22266 35 2.72734 35H9.09094Z" fill="#4285F4"/>
    <path d="M30.9091 35H37.2727C38.7819 35 40 33.5737 40 31.8189V9.02197L35.1319 12.2727L30.9091 16.9742V35Z" fill="#34A853"/>
    <path d="M9.09094 16.9742L8.43875 9.93103L9.09094 3.19L20 12.733L30.9091 3.19L31.6386 9.56709L30.9091 16.9742L20 26.5173L9.09094 16.9742Z" fill="#EA4335"/>
    <path d="M30.9091 3.18998V16.9742L40 9.02179V4.78042C40 0.846681 36.15 -1.39583 33.4547 0.963317L30.9091 3.18998Z" fill="#FBBC04"/>
    <path d="M0 9.02184L4.18109 12.6795L9.09094 16.9743V3.19003L6.54531 0.96337C3.84531 -1.39596 0 0.846734 0 4.78029V9.02166V9.02184Z" fill="#C5221F"/>
    </svg>
    