<svg width="35" height="35" viewBox="0 0 35 35" fill="none" xmlns="http://www.w3.org/2000/svg">
	<path d="M0 17.4998C0 24.6656 4.30908 30.8216 10.4752 33.5281C10.426 32.3062 10.4665 30.8392 10.7798 29.5097C11.1163 28.0891 13.0316 19.9741 13.0316 19.9741C13.0316 19.9741 12.4725 18.8567 12.4725 17.2053C12.4725 14.612 13.9756 12.6751 15.8476 12.6751C17.4394 12.6751 18.2084 13.8707 18.2084 15.3024C18.2084 16.9025 17.1878 19.296 16.6629 21.5128C16.2245 23.3691 17.5937 24.8832 19.4251 24.8832C22.7407 24.8832 24.9739 20.6247 24.9739 15.5791C24.9739 11.7437 22.3906 8.87294 17.692 8.87294C12.3835 8.87294 9.07645 12.8317 9.07645 17.2536C9.07645 18.7782 9.52598 19.8533 10.2301 20.6859C10.5538 21.0683 10.5988 21.2221 10.4816 21.6613C10.3977 21.9832 10.2049 22.7584 10.1251 23.0656C10.0086 23.5088 9.64944 23.6673 9.24885 23.5036C6.80378 22.5055 5.66506 19.8279 5.66506 16.818C5.66506 11.8469 9.85766 5.88613 18.1723 5.88613C24.8537 5.88613 29.2513 10.7209 29.2513 15.9108C29.2513 22.7756 25.4346 27.9042 19.8087 27.9042C17.9194 27.9042 16.1422 26.883 15.5334 25.7229C15.5334 25.7229 14.5174 29.7549 14.3022 30.5335C13.9312 31.8828 13.2049 33.2313 12.5409 34.2824C14.1511 34.7585 15.8215 35.0002 17.5006 35C27.1644 35 35 27.165 35 17.4998C35 7.835 27.1644 0 17.5006 0C7.83587 0 0 7.835 0 17.4998Z" fill="#FF000C" />
</svg>
