<svg width="69" height="59" viewBox="0 0 69 59" fill="none"
    xmlns="http://www.w3.org/2000/svg">
    <path d="M36.9643 8.60416C36.9643 6.90242 37.4701 5.2389 38.4179 3.82395C39.3656 2.409 40.7126 1.30619 42.2886 0.654957C43.8647 0.00372804 45.5989 -0.166663 47.2719 0.16533C48.945 0.497324 50.4819 1.31679 51.6881 2.5201C52.8943 3.72342 53.7158 5.25653 54.0486 6.92558C54.3814 8.59462 54.2106 10.3246 53.5577 11.8968C52.9049 13.469 51.7995 14.8128 50.3811 15.7583C48.9627 16.7037 47.2952 17.2083 45.5893 17.2083C43.3043 17.2002 41.1152 16.2911 39.4995 14.6793C37.8837 13.0674 36.9724 10.8836 36.9643 8.60416ZM17.25 23.3542C17.25 21.6524 16.7442 19.9889 15.7964 18.5739C14.8487 17.159 13.5017 16.0562 11.9256 15.4049C10.3496 14.7537 8.61544 14.5833 6.94235 14.9153C5.26926 15.2473 3.73244 16.0668 2.52621 17.2701C1.31998 18.4734 0.498528 20.0065 0.165731 21.6756C-0.167067 23.3446 0.00373707 25.0746 0.656543 26.6468C1.30935 28.219 2.41484 29.5628 3.83321 30.5082C5.25158 31.4537 6.91914 31.9583 8.625 31.9583C10.91 31.9502 13.0991 31.0411 14.7148 29.4293C16.3306 27.8174 17.2419 25.6336 17.25 23.3542ZM23.4107 17.2083C25.1166 17.2083 26.7841 16.7037 28.2025 15.7583C29.6209 14.8128 30.7264 13.469 31.3792 11.8968C32.032 10.3246 32.2028 8.59462 31.87 6.92558C31.5372 5.25653 30.7157 3.72342 29.5095 2.5201C28.3033 1.31679 26.7665 0.497324 25.0934 0.16533C23.4203 -0.166663 21.6861 0.00372804 20.1101 0.654957C18.5341 1.30619 17.187 2.409 16.2393 3.82395C15.2916 5.2389 14.7857 6.90242 14.7857 8.60416C14.7938 10.8836 15.7051 13.0674 17.3209 14.6793C18.9366 16.2911 21.1257 17.2002 23.4107 17.2083ZM52.7049 35.8916C51.4527 35.2051 50.3484 34.2791 49.4552 33.1666C48.5619 32.054 47.8972 30.7768 47.4991 29.4078C46.6898 26.5918 44.9837 24.1151 42.6385 22.352C40.2933 20.589 37.4366 19.6354 34.5 19.6354C31.5635 19.6354 28.7067 20.589 26.3615 22.352C24.0163 24.1151 22.3102 26.5918 21.5009 29.4078C20.6981 32.1641 18.8388 34.4937 16.3259 35.8916C13.9124 37.1912 12.0025 39.2569 10.8987 41.7615C9.79492 44.2662 9.56038 47.0666 10.2322 49.7193C10.9041 52.3719 12.4439 54.7252 14.6078 56.4062C16.7717 58.0873 19.4359 59 22.1786 59C23.8174 58.9983 25.4398 58.6746 26.9531 58.0474C31.7734 56.0552 37.1876 56.0442 42.0161 58.0166C43.5346 58.6656 45.1694 59.0002 46.8214 59C49.5667 59.0069 52.2357 58.099 54.4048 56.4204C56.574 54.7418 58.1191 52.3886 58.7949 49.7342C59.4707 47.0798 59.2385 44.2763 58.1353 41.7686C57.032 39.2608 55.1208 37.1924 52.7049 35.8916ZM60.375 14.75C58.6691 14.75 57.0016 15.2546 55.5832 16.2001C54.1648 17.1455 53.0593 18.4893 52.4065 20.0615C51.7537 21.6337 51.5829 23.3637 51.9157 25.0327C52.2485 26.7018 53.07 28.2349 54.2762 29.4382C55.4824 30.6415 57.0193 31.461 58.6923 31.793C60.3654 32.125 62.0996 31.9546 63.6756 31.3034C65.2517 30.6521 66.5987 29.5493 67.5464 28.1344C68.4942 26.7194 69 25.0559 69 23.3542C68.9919 21.0747 68.0806 18.8909 66.4648 17.279C64.8491 15.6672 62.66 14.7581 60.375 14.75Z" fill="black"/>
</svg>
