<svg width="69" height="59" viewBox="0 0 69 59" fill="none"
    xmlns="http://www.w3.org/2000/svg">
    <path d="M24.4375 0C21.3612 0 18.6875 1.63591 16.9797 3.85646C15.272 6.077 14.375 8.95727 14.375 12.0682C14.375 15.1791 15.2749 18.0594 16.9797 20.2826C18.6875 22.5005 21.3612 24.1364 24.4375 24.1364C27.5138 24.1364 30.1875 22.5005 31.8953 20.2799C33.603 18.0594 34.5 15.1791 34.5 12.0682C34.5 8.95727 33.6001 6.077 31.8953 3.85377C30.1875 1.63591 27.5138 0 24.4375 0ZM34.5 12.0682C34.5 15.1791 35.3999 18.0594 37.1048 20.2826C38.8125 22.5005 41.4862 24.1364 44.5625 24.1364C47.6388 24.1364 50.3125 22.5005 52.0202 20.2799C53.7251 18.0594 54.625 15.1791 54.625 12.0682C54.625 8.95727 53.7251 6.077 52.0202 3.85377C50.3125 1.63591 47.6388 0 44.5625 0C41.4862 0 38.8125 1.63591 37.1048 3.85646C35.3999 6.077 34.5 8.95727 34.5 12.0682ZM24.4375 5.36364C25.3374 5.36364 26.3235 5.782 27.2234 6.95664C28.1175 8.12591 28.75 9.99514 28.75 12.0682C28.75 14.1412 28.1204 16.0078 27.2234 17.1797C26.3235 18.3544 25.3374 18.7727 24.4375 18.7727C23.5376 18.7727 22.5515 18.3544 21.6516 17.1797C20.7575 16.0105 20.125 14.1412 20.125 12.0682C20.125 9.99514 20.7546 8.12859 21.6516 6.95664C22.5515 5.782 23.5376 5.36364 24.4375 5.36364ZM44.5625 5.36364C45.4624 5.36364 46.4485 5.782 47.3484 6.95664C48.2425 8.12591 48.875 9.99514 48.875 12.0682C48.875 14.1412 48.2454 16.0078 47.3484 17.1797C46.4485 18.3544 45.4595 18.7727 44.5625 18.7727C43.6626 18.7727 42.6765 18.3544 41.7766 17.1797C40.8825 16.0105 40.25 14.1412 40.25 12.0682C40.25 9.99514 40.8796 8.12859 41.7766 6.95664C42.6765 5.782 43.6655 5.36364 44.5625 5.36364ZM10.0625 18.7727C6.98625 18.7727 4.3125 20.4086 2.60475 22.6292C0.899875 24.847 0 27.73 0 30.8409C0 33.9518 0.899875 36.8321 2.60475 39.0553C4.3125 41.2732 6.98625 42.9091 10.0625 42.9091C13.1388 42.9091 15.8125 41.2732 17.5203 39.0526C19.228 36.8321 20.125 33.9518 20.125 30.8409C20.125 27.73 19.2251 24.8497 17.5203 22.6265C15.8125 20.4086 13.1388 18.7727 10.0625 18.7727ZM58.9375 18.7727C55.8612 18.7727 53.1875 20.4086 51.4798 22.6292C49.7749 24.8497 48.875 27.73 48.875 30.8409C48.875 33.9518 49.7749 36.8321 51.4798 39.0553C53.1875 41.2732 55.8612 42.9091 58.9375 42.9091C62.0138 42.9091 64.6875 41.2732 66.3952 39.0526C68.1001 36.8321 69 33.9518 69 30.8409C69 27.73 68.1001 24.8497 66.3952 22.6265C64.6875 20.4086 62.0138 18.7727 58.9375 18.7727ZM10.0625 24.1364C10.9624 24.1364 11.9485 24.5547 12.8484 25.7294C13.7425 26.8986 14.375 28.7679 14.375 30.8409C14.375 32.914 13.7454 34.7805 12.8484 35.9525C11.9485 37.1271 10.9624 37.5455 10.0625 37.5455C9.16263 37.5455 8.1765 37.1271 7.27663 35.9525C6.3825 34.7832 5.75 32.914 5.75 30.8409C5.75 28.7679 6.37963 26.9013 7.27663 25.7294C8.1765 24.5547 9.1655 24.1364 10.0625 24.1364ZM58.9375 24.1364C59.8374 24.1364 60.8235 24.5547 61.7234 25.7294C62.6204 26.9013 63.25 28.7679 63.25 30.8409C63.25 32.914 62.6204 34.7805 61.7234 35.9525C60.8235 37.1271 59.8345 37.5455 58.9375 37.5455C58.0376 37.5455 57.0515 37.1271 56.1516 35.9525C55.2575 34.7832 54.625 32.914 54.625 30.8409C54.625 28.7679 55.2546 26.9013 56.1516 25.7294C57.0515 24.5547 58.0405 24.1364 58.9375 24.1364ZM34.5 29.5C30.6705 29.5 27.9967 31.8251 26.6829 33.858C25.369 35.8908 24.5726 37.5857 23.8079 38.299C23.3594 38.7201 20.5879 39.6936 17.6985 41.0667C16.2495 41.7559 14.7919 42.6785 13.5671 44.0837C12.2222 45.6532 11.4928 47.6044 11.5 49.6136C11.5 54.7681 16.0368 59 21.5625 59C24.0551 59 26.6513 58.2571 29.1985 57.576C31.7486 56.8948 34.5 56.3182 34.5 56.3182C34.5 56.3182 37.2514 56.8948 39.8015 57.576C42.3488 58.2571 44.9449 59 47.4375 59C52.9632 59 57.5 54.7681 57.5 49.6136C57.5 47.487 56.6576 45.5373 55.4329 44.1669C54.2081 42.7938 52.739 41.9463 51.3015 41.233C48.4265 39.8089 45.5946 38.6772 45.1921 38.299C44.505 37.6608 43.7316 35.9122 42.4062 33.858C41.0838 31.8037 38.3525 29.5 34.5 29.5ZM34.5 34.8636C36.3975 34.8636 36.6102 35.2927 37.4641 36.6229C38.318 37.9531 38.9706 40.2058 41.0579 42.1555C43.4269 44.3653 46.4255 44.848 48.6048 45.9261C49.6973 46.4705 50.5368 47.0471 51.0312 47.6023C51.5257 48.1574 51.75 48.6696 51.75 49.6136C51.75 51.8664 49.8525 53.6364 47.4375 53.6364C46.6037 53.6364 43.9214 53.0383 41.4173 52.3786C38.916 51.7189 36.846 50.9545 34.5 50.9545C32.154 50.9545 30.0869 51.7189 27.5828 52.3786C25.0786 53.0383 22.3934 53.6364 21.5625 53.6364C19.1475 53.6364 17.25 51.8664 17.25 49.6136C17.25 48.5355 17.4858 47.9777 17.9688 47.4333C18.4517 46.8889 19.3286 46.3552 20.3953 45.843C22.54 44.8239 25.5156 44.4163 27.9421 42.1555C30.0524 40.1844 30.6935 37.8592 31.5359 36.5398C32.3783 35.2203 32.5795 34.8636 34.5 34.8636Z" fill="black"/>
</svg>
