<svg width="31" height="31" viewBox="0 0 31 31" fill="none" xmlns="http://www.w3.org/2000/svg">
<path d="M15.5 31C13.3817 31 11.3796 30.5929 9.49375 29.7786C7.60792 28.9654 5.9613 27.8545 4.5539 26.4461C3.14547 25.0387 2.03463 23.3921 1.2214 21.5062C0.407133 19.6204 0 17.6183 0 15.5C0 13.3558 0.407133 11.3475 1.2214 9.47515C2.03463 7.60172 3.14547 5.9613 4.5539 4.5539C5.9613 3.14547 7.60792 2.03412 9.49375 1.21985C11.3796 0.406617 13.3817 0 15.5 0C17.6442 0 19.6525 0.406617 21.5248 1.21985C23.3983 2.03412 25.0387 3.14547 26.4461 4.5539C27.8545 5.9613 28.9654 7.60172 29.7786 9.47515C30.5929 11.3475 31 13.3558 31 15.5C31 17.6183 30.5929 19.6204 29.7786 21.5062C28.9654 23.3921 27.8545 25.0387 26.4461 26.4461C25.0387 27.8545 23.3983 28.9654 21.5248 29.7786C19.6525 30.5929 17.6442 31 15.5 31ZM15.5 27.8225C16.1717 26.8925 16.7529 25.9237 17.2437 24.9163C17.7346 23.9088 18.135 22.8367 18.445 21.7H12.555C12.865 22.8367 13.2654 23.9088 13.7562 24.9163C14.2471 25.9237 14.8283 26.8925 15.5 27.8225ZM11.47 27.2025C11.005 26.35 10.5984 25.4649 10.2501 24.5473C9.90088 23.6308 9.61 22.6817 9.3775 21.7H4.805C5.55417 22.9917 6.49037 24.1154 7.6136 25.0712C8.73787 26.0271 10.0233 26.7375 11.47 27.2025ZM19.53 27.2025C20.9767 26.7375 22.2616 26.0271 23.3848 25.0712C24.5091 24.1154 25.4458 22.9917 26.195 21.7H21.6225C21.39 22.6817 21.0996 23.6308 20.7514 24.5473C20.4021 25.4649 19.995 26.35 19.53 27.2025ZM3.4875 18.6H8.7575C8.68 18.0833 8.62162 17.5729 8.58235 17.0686C8.54412 16.5654 8.525 16.0425 8.525 15.5C8.525 14.9575 8.54412 14.4346 8.58235 13.9314C8.62162 13.4271 8.68 12.9167 8.7575 12.4H3.4875C3.35833 12.9167 3.2612 13.4271 3.1961 13.9314C3.13203 14.4346 3.1 14.9575 3.1 15.5C3.1 16.0425 3.13203 16.5654 3.1961 17.0686C3.2612 17.5729 3.35833 18.0833 3.4875 18.6ZM11.8575 18.6H19.1425C19.22 18.0833 19.2784 17.5729 19.3176 17.0686C19.3559 16.5654 19.375 16.0425 19.375 15.5C19.375 14.9575 19.3559 14.4346 19.3176 13.9314C19.2784 13.4271 19.22 12.9167 19.1425 12.4H11.8575C11.78 12.9167 11.7221 13.4271 11.6839 13.9314C11.6446 14.4346 11.625 14.9575 11.625 15.5C11.625 16.0425 11.6446 16.5654 11.6839 17.0686C11.7221 17.5729 11.78 18.0833 11.8575 18.6ZM22.2425 18.6H27.5125C27.6417 18.0833 27.7388 17.5729 27.8039 17.0686C27.868 16.5654 27.9 16.0425 27.9 15.5C27.9 14.9575 27.868 14.4346 27.8039 13.9314C27.7388 13.4271 27.6417 12.9167 27.5125 12.4H22.2425C22.32 12.9167 22.3779 13.4271 22.4161 13.9314C22.4554 14.4346 22.475 14.9575 22.475 15.5C22.475 16.0425 22.4554 16.5654 22.4161 17.0686C22.3779 17.5729 22.32 18.0833 22.2425 18.6ZM21.6225 9.3H26.195C25.4458 8.00833 24.5091 6.88458 23.3848 5.92875C22.2616 4.97292 20.9767 4.2625 19.53 3.7975C19.995 4.65 20.4021 5.53453 20.7514 6.4511C21.0996 7.3687 21.39 8.31833 21.6225 9.3ZM12.555 9.3H18.445C18.135 8.16333 17.7346 7.09125 17.2437 6.08375C16.7529 5.07625 16.1717 4.1075 15.5 3.1775C14.8283 4.1075 14.2471 5.07625 13.7562 6.08375C13.2654 7.09125 12.865 8.16333 12.555 9.3ZM4.805 9.3H9.3775C9.61 8.31833 9.90088 7.3687 10.2501 6.4511C10.5984 5.53453 11.005 4.65 11.47 3.7975C10.0233 4.2625 8.73787 4.97292 7.6136 5.92875C6.49037 6.88458 5.55417 8.00833 4.805 9.3Z" fill="black"/>
</svg>
