<svg width="82" height="26" viewBox="0 0 82 26" fill="none" xmlns="http://www.w3.org/2000/svg">
	<path d="M42.484 8.3119C42.4378 11.9338 45.7312 13.9549 48.2122 15.1566C50.7611 16.3895 51.6173 17.1802 51.6072 18.2828C51.5882 19.9702 49.574 20.715 47.6892 20.7439C44.4007 20.7945 42.4887 19.8614 40.9687 19.1556L39.7841 24.6655C41.3091 25.3641 44.1331 25.9733 47.0614 26C53.9353 26 58.4324 22.6272 58.4568 17.3978C58.4837 10.761 49.2215 10.3936 49.2848 7.42718C49.3066 6.52768 50.1701 5.56779 52.0622 5.32373C52.9988 5.20044 55.5841 5.10609 58.5153 6.44779L59.6658 1.11683C58.0894 0.546307 56.0635 0 53.5411 0C47.0712 0 42.5207 3.41873 42.484 8.3119ZM70.7204 0.459187C69.4652 0.459187 68.4074 1.18696 67.9354 2.30379L58.1163 25.6084H64.9852L66.3521 21.8535H74.7457L75.5386 25.6084H81.5927L76.3097 0.459187H70.7204ZM71.6813 7.25294L73.6636 16.6968H68.2347L71.6813 7.25294ZM34.1558 0.459499L28.7415 25.6081H35.287L40.6988 0.458872H34.1558M24.4728 0.458872L17.66 17.5768L14.9041 3.02214C14.5807 1.39737 13.3037 0.459187 11.8856 0.459187H0.748701L0.592712 1.18948C2.87906 1.68263 5.47676 2.47803 7.05056 3.3291C8.0137 3.84899 8.28835 4.30346 8.60475 5.53885L13.8245 25.6084H20.7415L31.3461 0.459187H24.4728" fill="url(#paint0_linear_61_1689)" />
	<defs>
		<linearGradient id="paint0_linear_61_1689" x1="37.8317" y1="26.5216" x2="38.5797" y2="-0.181074" gradientUnits="userSpaceOnUse">
			<stop stop-color="#222357" />
			<stop offset="1" stop-color="#254AA5" />
		</linearGradient>
	</defs>
</svg>
