<svg width="47" height="60" viewBox="0 0 47 60" fill="none" xmlns="http://www.w3.org/2000/svg">
<path d="M43.75 0.833374V6.66671H37.9167V15.4167C40.2373 15.4167 42.4629 16.3386 44.1039 17.9795C45.7448 19.6205 46.6667 21.8461 46.6667 24.1667V56.25C46.6667 57.0236 46.3594 57.7655 45.8124 58.3124C45.2654 58.8594 44.5235 59.1667 43.75 59.1667H2.91667C2.14312 59.1667 1.40125 58.8594 0.854272 58.3124C0.307291 57.7655 0 57.0236 0 56.25V24.1667C0 21.8461 0.921872 19.6205 2.56282 17.9795C4.20376 16.3386 6.42936 15.4167 8.75 15.4167V6.66671H2.91667V0.833374H43.75ZM37.9167 21.25H8.75C7.97645 21.25 7.23459 21.5573 6.68761 22.1043C6.14062 22.6513 5.83333 23.3932 5.83333 24.1667V53.3334H40.8333V24.1667C40.8333 23.3932 40.526 22.6513 39.9791 22.1043C39.4321 21.5573 38.6902 21.25 37.9167 21.25ZM26.25 27.0834V32.9167H32.0833V38.75H26.2471L26.25 44.5834H20.4167L20.4137 38.75H14.5833V32.9167H20.4167V27.0834H26.25ZM32.0833 6.66671H14.5833V15.4167H32.0833V6.66671Z" fill="#FF0000"/>
<path d="M32.3334 39H26.3334V45H20.3334V39H14.3334V32.5H20.3334V27H26.3334V32.5H32.3334V39Z" fill="black"/>
<rect x="2.33337" width="42" height="7" fill="black"/>
</svg>
