<svg width="82" height="82" viewBox="0 0 82 82" fill="none" xmlns="http://www.w3.org/2000/svg">
<path d="M12.8098 21.2502C12.8098 21.2502 12.3362 24.3804 12.6208 24.855C12.9054 25.3285 15.2764 28.0797 15.6554 28.0797C16.0345 28.0797 18.5011 28.3643 18.5011 28.3643L20.114 25.1396L18.2165 21.9138L14.7072 20.4909L12.8098 21.2502ZM18.5011 12.0485L18.3121 15.1787L20.6831 17.9299H23.2442L24.5725 16.0324L24.0034 12.6176L21.3467 9.77195L18.5011 12.0485ZM30.1682 8.34912L27.9873 11.1948L29.2201 13.6614L30.4528 15.1787L33.3941 15.2743L34.2477 12.8077L33.9632 9.67747C33.9632 9.67747 33.1095 8.34912 32.7293 8.34912H30.1682ZM39.4644 12.4286L38.3261 15.9379C38.3261 15.9379 38.5162 19.6372 38.8008 19.9218C39.0854 20.2064 41.8354 21.3446 41.8354 21.3446L43.6384 18.6891L44.0174 14.6095L42.0255 12.5231L39.4644 12.4286ZM25.0461 23.7156C24.9516 24.0002 23.1497 27.7952 23.1497 27.7952L23.5288 31.8735L22.2004 35.6674L22.9596 39.4623L26.1843 41.8333L30.2638 41.2642L32.7293 38.3241L38.7052 39.9358C38.7052 39.9358 42.6891 37.6593 42.5946 37.3747C42.5001 37.0902 43.2582 32.4427 43.2582 32.4427C43.2582 32.4427 40.0335 28.3643 39.1798 28.5532C39.1798 28.5532 37.8515 23.4311 34.2477 22.3884C30.6429 21.3446 27.4182 21.8193 27.4182 21.8193L25.0461 23.7156ZM39.5589 46.1974C39.5589 46.1974 38.136 49.8011 38.3261 50.0857C38.5162 50.3703 39.9391 53.785 39.9391 53.785C39.9391 53.785 42.8792 54.2597 42.9736 53.9751C43.0693 53.6906 44.2075 50.6548 44.2075 50.6548L44.1119 47.05L39.5589 46.1963V46.1974ZM50.2779 39.937L48.2859 43.5407L49.7087 47.6202L53.8827 45.8172L54.4519 42.9716L53.4081 40.2215L50.2779 39.937ZM60.6167 42.4981C60.5222 42.7826 57.8666 46.3863 57.8666 46.3863L58.9093 49.9912L62.1351 49.8967L64.4116 46.3863L63.7469 42.9716L60.6167 42.4981ZM66.7826 51.6041L63.937 55.1134L63.3678 58.2436L64.9808 59.3819L69.2492 58.2436C69.2492 58.2436 70.3875 55.777 70.3875 55.4924C70.3875 55.2079 69.9128 52.2677 69.9128 52.2677L66.7826 51.6041ZM46.673 55.4924C46.4488 56.6159 44.2075 60.6146 44.2075 60.6146C44.2075 60.6146 40.8872 62.7966 40.6971 63.1757C40.5082 63.5547 39.8434 67.2541 39.8434 67.2541L41.5508 70.4799L44.302 71.9027L49.7087 70.2898L53.4081 74.2737C53.4081 74.2737 57.1074 74.8428 58.6247 73.2299C60.1432 71.6182 60.8068 68.2978 60.8068 68.2978L59.0994 64.8831L59.763 60.33C59.763 60.33 58.5302 54.2597 55.4945 53.6906C52.4599 53.1214 46.9576 54.0696 46.673 55.4924Z" fill="#3F3F3F"/>
<path d="M38.9333 28.5032C38.8929 28.25 38.842 27.9986 38.7808 27.7497C37.6289 23.1773 33.2375 20.343 28.969 21.4175C24.7016 22.492 22.1758 27.0701 23.3278 31.6414C23.3915 31.8929 23.4678 32.1377 23.5509 32.3778C22.2385 33.7198 21.6249 35.7562 22.1428 37.8096C22.91 40.8579 25.8388 42.7474 28.6833 42.0314C30.6001 41.5488 32.9051 38.0327 33.1396 37.9747C33.374 37.9155 37.07 39.9188 38.9857 39.4362C41.8313 38.7191 43.5148 35.6685 42.7465 32.6203C42.2297 30.5669 40.7249 29.0632 38.9333 28.5032V28.5032Z" stroke="black" stroke-width="2" stroke-miterlimit="10" stroke-linecap="round" stroke-linejoin="round"/>
<path d="M23.1869 18.1482C24.763 17.5388 25.349 15.2562 24.4959 13.0498C23.6427 10.8434 21.6735 9.54878 20.0974 10.1582C18.5213 10.7676 17.9353 13.0503 18.7884 15.2567C19.6415 17.4631 21.6108 18.7577 23.1869 18.1482Z" stroke="black" stroke-width="2" stroke-miterlimit="10" stroke-linecap="round" stroke-linejoin="round"/>
<path d="M18.4752 28.0771C19.8753 27.1311 19.9368 24.7752 18.6124 22.8151C17.2881 20.855 15.0794 20.0329 13.6793 20.9789C12.2791 21.9249 12.2176 24.2808 13.542 26.2409C14.8664 28.2011 17.075 29.0232 18.4752 28.0771Z" stroke="black" stroke-width="2" stroke-miterlimit="10" stroke-linecap="round" stroke-linejoin="round"/>
<path d="M44.1779 17.1048C44.3549 14.7458 43.1323 12.731 41.4473 12.6046C39.7622 12.4782 38.2527 14.288 38.0758 16.647C37.8988 19.006 39.1214 21.0207 40.8064 21.1471C42.4915 21.2736 44.001 19.4637 44.1779 17.1048Z" stroke="black" stroke-width="2" stroke-miterlimit="10" stroke-linecap="round" stroke-linejoin="round"/>
<path d="M32.1581 15.8972C33.8298 15.6506 34.9052 13.5536 34.5601 11.2133C34.2149 8.87306 32.58 7.17574 30.9083 7.42227C29.2365 7.6688 28.1611 9.76582 28.5062 12.1061C28.8514 14.4464 30.4863 16.1437 32.1581 15.8972Z" stroke="black" stroke-width="2" stroke-miterlimit="10" stroke-linecap="round" stroke-linejoin="round"/>
<path d="M59.2081 64.7738C59.2957 64.5348 59.3788 64.2923 59.4482 64.0431C60.7106 59.5003 58.2963 54.863 54.0563 53.6849C49.8163 52.5068 45.3566 55.2329 44.0942 59.7769C44.0248 60.0273 43.9713 60.2777 43.9235 60.527C42.1182 61.0426 40.5782 62.5098 40.0113 64.5496C39.1701 67.5774 40.7796 70.67 43.6059 71.4554C45.5102 71.9836 49.2517 70.0701 49.4862 70.135C49.7207 70.1999 51.938 73.7706 53.8423 74.2988C56.6686 75.0842 59.6417 73.2664 60.4841 70.2375C61.0509 68.1977 60.4875 66.1466 59.2081 64.7738V64.7738Z" stroke="black" stroke-width="2" stroke-miterlimit="10" stroke-linecap="round" stroke-linejoin="round"/>
<path d="M54.3115 44.1958C54.662 41.8563 53.5915 39.7568 51.9203 39.5064C50.2492 39.256 48.6103 40.9495 48.2597 43.289C47.9092 45.6285 48.9797 47.728 50.6509 47.9784C52.322 48.2288 53.9609 46.5353 54.3115 44.1958Z" stroke="black" stroke-width="2" stroke-miterlimit="10" stroke-linecap="round" stroke-linejoin="round"/>
<path d="M41.6422 54.2787C43.3271 54.1501 44.547 52.1337 44.367 49.775C44.1869 47.4163 42.6751 45.6084 40.9902 45.737C39.3053 45.8657 38.0854 47.882 38.2655 50.2408C38.4455 52.5995 39.9573 54.4073 41.6422 54.2787Z" stroke="black" stroke-width="2" stroke-miterlimit="10" stroke-linecap="round" stroke-linejoin="round"/>
<path d="M69.4076 57.4624C70.729 55.5002 70.6639 53.1444 69.2623 52.2006C67.8607 51.2567 65.6533 52.0822 64.332 54.0443C63.0106 56.0065 63.0757 58.3623 64.4773 59.3061C65.8789 60.25 68.0863 59.4245 69.4076 57.4624Z" stroke="black" stroke-width="2" stroke-miterlimit="10" stroke-linecap="round" stroke-linejoin="round"/>
<path d="M63.9652 47.5869C64.8239 45.3827 64.2437 43.0985 62.6692 42.4851C61.0946 41.8717 59.1221 43.1613 58.2634 45.3655C57.4046 47.5698 57.9849 49.8539 59.5594 50.4673C61.134 51.0807 63.1065 49.7911 63.9652 47.5869Z" stroke="black" stroke-width="2" stroke-miterlimit="10" stroke-linecap="round" stroke-linejoin="round"/>
</svg>
