<svg width="38" height="50" viewBox="0 0 38 50" fill="none" xmlns="http://www.w3.org/2000/svg">
<g clip-path="url(#clip0_301_686)">
<path d="M7.17404 13.9775L7.7621 15.0978L8.48083 16.495H14.0216V22.7888H3.56731V13.9775H7.17404ZM7.98425 11.4601H2.26053C1.91395 11.4601 1.58156 11.5927 1.33649 11.8287C1.09142 12.0648 0.953743 12.385 0.953743 12.7188V24.0475C0.953743 24.3814 1.09142 24.7015 1.33649 24.9376C1.58156 25.1737 1.91395 25.3063 2.26053 25.3063H15.3284C15.675 25.3063 16.0074 25.1737 16.2524 24.9376C16.4975 24.7015 16.6352 24.3814 16.6352 24.0475V15.2363C16.6352 14.9025 16.4975 14.5823 16.2524 14.3462C16.0074 14.1102 15.675 13.9775 15.3284 13.9775H10.1012L9.16036 12.1524C9.05077 11.9429 8.88258 11.767 8.67477 11.6447C8.46696 11.5224 8.22779 11.4584 7.98425 11.4601ZM28.0826 13.9775L28.6707 15.0978L29.3894 16.495H34.9302V22.7888H24.4759V13.9775H28.0826ZM28.8928 11.4601H23.1691C22.8225 11.4601 22.4901 11.5927 22.2451 11.8287C22 12.0648 21.8623 12.385 21.8623 12.7188V24.0475C21.8623 24.3814 22 24.7015 22.2451 24.9376C22.4901 25.1737 22.8225 25.3063 23.1691 25.3063H36.237C36.5835 25.3063 36.9159 25.1737 37.161 24.9376C37.4061 24.7015 37.5437 24.3814 37.5437 24.0475V15.2363C37.5437 14.9025 37.4061 14.5823 37.161 14.3462C36.9159 14.1102 36.5835 13.9775 36.237 13.9775H31.0098L30.0689 12.1524C29.9593 11.9429 29.7912 11.767 29.5833 11.6447C29.3755 11.5224 29.1364 11.4584 28.8928 11.4601ZM7.17404 30.3413L7.7621 31.4616L8.48083 32.8588H14.0216V39.1525H3.56731V30.3413H7.17404ZM7.98425 27.8238H2.26053C1.91395 27.8238 1.58156 27.9564 1.33649 28.1925C1.09142 28.4285 0.953743 28.7487 0.953743 29.0825V40.4113C0.953743 40.7451 1.09142 41.0653 1.33649 41.3013C1.58156 41.5374 1.91395 41.67 2.26053 41.67H15.3284C15.675 41.67 16.0074 41.5374 16.2524 41.3013C16.4975 41.0653 16.6352 40.7451 16.6352 40.4113V31.6C16.6352 31.2662 16.4975 30.946 16.2524 30.71C16.0074 30.4739 15.675 30.3413 15.3284 30.3413H10.1012L9.16036 28.5161C9.05077 28.3066 8.88258 28.1308 8.67477 28.0084C8.46696 27.8861 8.22779 27.8222 7.98425 27.8238ZM28.0826 30.3413L28.6707 31.4616L29.3894 32.8588H34.9302V39.1525H24.4759V30.3413H28.0826ZM28.8928 27.8238H23.1691C22.8225 27.8238 22.4901 27.9564 22.2451 28.1925C22 28.4285 21.8623 28.7487 21.8623 29.0825V40.4113C21.8623 40.7451 22 41.0653 22.2451 41.3013C22.4901 41.5374 22.8225 41.67 23.1691 41.67H36.237C36.5835 41.67 36.9159 41.5374 37.161 41.3013C37.4061 41.0653 37.5437 40.7451 37.5437 40.4113V31.6C37.5437 31.2662 37.4061 30.946 37.161 30.71C36.9159 30.4739 36.5835 30.3413 36.237 30.3413H31.0098L30.0689 28.5161C29.9593 28.3066 29.7912 28.1308 29.5833 28.0084C29.3755 27.8861 29.1364 27.8222 28.8928 27.8238Z" fill="black"/>
</g>
<defs>
<clipPath id="clip0_301_686">
<rect width="36.5896" height="50" fill="white" transform="translate(0.953743)"/>
</clipPath>
</defs>
</svg>
