<svg width="87" height="86" viewBox="0 0 87 86" fill="none" xmlns="http://www.w3.org/2000/svg">
<path d="M73.2771 34.4269H77.5612V81.5518H9.01591V34.4269H13.3V25.8587C13.3 14.0347 22.8963 4.43831 34.7204 4.43831C37.7621 4.43831 40.6753 5.08092 43.2886 6.23763C45.988 5.04719 48.9065 4.43431 51.8567 4.43831C63.6808 4.43831 73.2771 14.0347 73.2771 25.8587V34.4269ZM21.8682 25.8587V34.4269H30.4363V25.8587C30.4363 21.0177 32.1071 16.6051 34.8061 13.0065H34.7204C27.6517 13.0065 21.8682 18.79 21.8682 25.8587ZM64.709 34.4269V25.8587C64.709 18.79 58.9254 13.0065 51.8567 13.0065H51.771C54.588 16.7005 56.1223 21.2131 56.1408 25.8587V34.4269H64.709ZM43.2886 16.3481C40.6753 18.7043 39.0045 22.0887 39.0045 25.8587V34.4269H47.5726V25.8587C47.5726 22.0887 45.9018 18.7043 43.2886 16.3481Z" fill="#FF0000" fill-opacity="0.48"/>
</svg>
