<svg width="87" height="88" viewBox="0 0 87 88" fill="none" xmlns="http://www.w3.org/2000/svg">
<path d="M18.548 16.6897L19.7529 19.1054L21.2255 22.1182H32.5784V35.6893H11.158V16.6897H18.548ZM20.2081 11.2613H8.4804C7.77027 11.2613 7.08923 11.5472 6.58709 12.0562C6.08495 12.5652 5.80285 13.2556 5.80285 13.9755V38.4035C5.80285 39.1234 6.08495 39.8137 6.58709 40.3228C7.08923 40.8318 7.77027 41.1177 8.4804 41.1177H35.2559C35.966 41.1177 36.6471 40.8318 37.1492 40.3228C37.6514 39.8137 37.9335 39.1234 37.9335 38.4035V19.4039C37.9335 18.6841 37.6514 17.9937 37.1492 17.4847C36.6471 16.9757 35.966 16.6897 35.2559 16.6897H24.5457L22.6179 12.7541C22.3933 12.3023 22.0487 11.9232 21.6229 11.6594C21.1971 11.3956 20.7071 11.2577 20.2081 11.2613ZM61.3888 16.6897L62.5937 19.1054L64.0663 22.1182H75.4191V35.6893H53.9987V16.6897H61.3888ZM63.0489 11.2613H51.3212C50.6111 11.2613 49.93 11.5472 49.4279 12.0562C48.9257 12.5652 48.6437 13.2556 48.6437 13.9755V38.4035C48.6437 39.1234 48.9257 39.8137 49.4279 40.3228C49.93 40.8318 50.6111 41.1177 51.3212 41.1177H78.0967C78.8068 41.1177 79.4879 40.8318 79.99 40.3228C80.4922 39.8137 80.7742 39.1234 80.7742 38.4035V19.4039C80.7742 18.6841 80.4922 17.9937 79.99 17.4847C79.4879 16.9757 78.8068 16.6897 78.0967 16.6897H67.3865L65.4587 12.7541C65.2341 12.3023 64.8895 11.9232 64.4637 11.6594C64.0379 11.3956 63.5479 11.2577 63.0489 11.2613ZM18.548 51.9746L19.7529 54.3903L21.2255 57.4031H32.5784V70.9742H11.158V51.9746H18.548ZM20.2081 46.5462H8.4804C7.77027 46.5462 7.08923 46.8322 6.58709 47.3412C6.08495 47.8502 5.80285 48.5406 5.80285 49.2604V73.6885C5.80285 74.4083 6.08495 75.0987 6.58709 75.6077C7.08923 76.1167 7.77027 76.4027 8.4804 76.4027H35.2559C35.966 76.4027 36.6471 76.1167 37.1492 75.6077C37.6514 75.0987 37.9335 74.4083 37.9335 73.6885V54.6889C37.9335 53.969 37.6514 53.2786 37.1492 52.7696C36.6471 52.2606 35.966 51.9746 35.2559 51.9746H24.5457L22.6179 48.039C22.3933 47.5873 22.0487 47.2081 21.6229 46.9444C21.1971 46.6806 20.7071 46.5427 20.2081 46.5462ZM61.3888 51.9746L62.5937 54.3903L64.0663 57.4031H75.4191V70.9742H53.9987V51.9746H61.3888ZM63.0489 46.5462H51.3212C50.6111 46.5462 49.93 46.8322 49.4279 47.3412C48.9257 47.8502 48.6437 48.5406 48.6437 49.2604V73.6885C48.6437 74.4083 48.9257 75.0987 49.4279 75.6077C49.93 76.1167 50.6111 76.4027 51.3212 76.4027H78.0967C78.8068 76.4027 79.4879 76.1167 79.99 75.6077C80.4922 75.0987 80.7742 74.4083 80.7742 73.6885V54.6889C80.7742 53.969 80.4922 53.2786 79.99 52.7696C79.4879 52.2606 78.8068 51.9746 78.0967 51.9746H67.3865L65.4587 48.039C65.2341 47.5873 64.8895 47.2081 64.4637 46.9444C64.0379 46.6806 63.5479 46.5427 63.0489 46.5462Z" fill="#FFE600" fill-opacity="0.48"/>
</svg>
