<svg width="87" height="88" viewBox="0 0 87 88" fill="none" xmlns="http://www.w3.org/2000/svg">
<g clip-path="url(#clip0_331_1836)">
<path d="M43.2886 20.524C46.6025 20.524 49.7807 21.8585 52.124 24.2339C54.4673 26.6093 55.7838 29.8311 55.7838 33.1904C55.7838 36.5497 54.4673 39.7715 52.124 42.1469C49.7807 44.5223 46.6025 45.8568 43.2886 45.8568C39.9746 45.8568 36.7964 44.5223 34.4531 42.1469C32.1098 39.7715 30.7933 36.5497 30.7933 33.1904C30.7933 29.8311 32.1098 26.6093 34.4531 24.2339C36.7964 21.8585 39.9746 20.524 43.2886 20.524ZM18.2981 29.5714C20.2973 29.5714 22.1538 30.1143 23.7603 31.0914C23.2248 36.2665 24.7242 41.4055 27.7945 45.4225C26.0094 48.8967 22.4394 51.2853 18.2981 51.2853C15.4576 51.2853 12.7334 50.1414 10.7248 48.1053C8.71628 46.0693 7.58789 43.3078 7.58789 40.4283C7.58789 37.5489 8.71628 34.7874 10.7248 32.7514C12.7334 30.7153 15.4576 29.5714 18.2981 29.5714ZM68.279 29.5714C71.1195 29.5714 73.8437 30.7153 75.8523 32.7514C77.8608 34.7874 78.9892 37.5489 78.9892 40.4283C78.9892 43.3078 77.8608 46.0693 75.8523 48.1053C73.8437 50.1414 71.1195 51.2853 68.279 51.2853C64.1377 51.2853 60.5677 48.8967 58.7826 45.4225C61.8953 41.3491 63.3401 36.2166 62.8168 31.0914C64.4233 30.1143 66.2798 29.5714 68.279 29.5714ZM20.0831 66.6659C20.0831 59.1746 30.472 53.0947 43.2886 53.0947C56.1051 53.0947 66.494 59.1746 66.494 66.6659V72.9991H20.0831V66.6659ZM0.447754 72.9991V67.5706C0.447754 62.5402 7.19518 58.3061 16.3345 57.0756C14.2282 59.5365 12.943 62.9383 12.943 66.6659V72.9991H0.447754ZM86.1293 72.9991H73.6341V66.6659C73.6341 62.9383 72.3489 59.5365 70.2426 57.0756C79.3819 58.3061 86.1293 62.5402 86.1293 67.5706V72.9991Z" fill="#00FF29" fill-opacity="0.48"/>
</g>
<defs>
<clipPath id="clip0_331_1836">
<rect width="85.6816" height="86.8552" fill="white" transform="translate(0.447754 0.619694)"/>
</clipPath>
</defs>
</svg>
