<svg width="629" height="448" viewBox="0 0 629 448" fill="none"
    xmlns="http://www.w3.org/2000/svg">
    <path d="M196.936 291.226L280.797 168.231C280.801 168.225 280.806 168.218 280.81 168.212C285.991 160.455 294.778 155.91 304 155.91C313.257 155.91 321.92 160.482 327.179 168.196L447.174 344.189C447.176 344.191 447.178 344.194 447.179 344.196M196.936 291.226L69.3 345C63.5 352.2 62.4 362.1 66.4 370.4C70.4 378.7 78.8 384 88 384H184H216H424C432.9 384 441.1 379.1 445.2 371.2C449.3 363.3 448.8 353.8 443.8 346.5L447.179 344.196M196.936 291.226L173.893 262.444L173.888 262.438L173.883 262.431C168.514 255.779 160.448 251.91 152 251.91C143.582 251.91 135.393 255.756 130.098 262.455C130.096 262.458 130.093 262.462 130.09 262.466L66.1149 342.434C66.1132 342.436 66.1115 342.438 66.1098 342.441M196.936 291.226L66.1098 342.441M447.179 344.196C453.046 352.768 453.608 363.879 448.83 373.084C444.015 382.363 434.401 388.09 424 388.09H216H184H88C77.2208 388.09 67.3937 381.883 62.7155 372.176C58.036 362.466 59.317 350.878 66.1098 342.441M447.179 344.196L66.1098 342.441M4.09 64C4.09 30.9588 30.9588 4.09 64 4.09H448C481.041 4.09 507.91 30.9588 507.91 64V384C507.91 417.041 481.041 443.91 448 443.91H64C30.9588 443.91 4.09 417.041 4.09 384V64ZM112 164.09C125.815 164.09 139.064 158.602 148.833 148.833C158.602 139.064 164.09 125.815 164.09 112C164.09 98.1849 158.602 84.9356 148.833 75.1668C139.064 65.398 125.815 59.91 112 59.91C98.1849 59.91 84.9356 65.398 75.1668 75.1668C65.398 84.9356 59.91 98.1849 59.91 112C59.91 125.815 65.398 139.064 75.1668 148.833C84.9356 158.602 98.1849 164.09 112 164.09Z" fill="white" stroke="black" stroke-width="8.18"/>
    <path d="M420.714 108L412.499 150.322C398.818 155.365 386.091 162.689 374.857 171.982L334.18 157.965L295 225.785L327.568 254.098C324.993 268.432 324.993 283.109 327.568 297.443L295 325.748L334.188 393.535L374.808 379.542C386.045 388.846 398.789 396.161 412.49 401.17L420.714 443.5H499.017L507.077 401.603C520.709 396.164 533.452 388.717 544.882 379.51L585.543 393.535L624.69 325.748L592.155 297.41C594.763 283.102 594.763 268.439 592.155 254.131L624.723 225.761L585.535 157.973L544.915 171.966C533.674 162.668 520.931 155.354 507.232 150.338L499.009 108.016L420.714 108ZM459.158 224.247C472.833 224.489 485.866 230.091 495.452 239.848C505.037 249.605 510.408 262.735 510.408 276.413C510.408 290.09 505.037 303.221 495.452 312.978C485.866 322.734 472.833 328.337 459.158 328.579C452.307 328.58 445.523 327.232 439.194 324.611C432.864 321.991 427.113 318.149 422.268 313.306C417.423 308.462 413.58 302.712 410.957 296.384C408.335 290.055 406.984 283.272 406.983 276.421V276.413C406.983 269.562 408.333 262.777 410.955 256.448C413.577 250.118 417.42 244.367 422.265 239.523C427.11 234.679 432.862 230.836 439.192 228.215C445.522 225.594 452.306 224.246 459.158 224.247Z" fill="white" stroke="black" stroke-width="8.18293" stroke-linecap="round" stroke-linejoin="round"/>
</svg>
