<svg width="31" height="31" viewBox="0 0 31 31" fill="none" xmlns="http://www.w3.org/2000/svg">
<path d="M1.25253 6.53656e-05C0.920335 6.53656e-05 0.60175 0.163368 0.366856 0.454049C0.131962 0.74473 0 1.13898 0 1.55006C0 1.96115 0.131962 2.35539 0.366856 2.64608C0.60175 2.93676 0.920335 3.10006 1.25253 3.10006H4.03313L7.31976 19.375C7.59907 20.7545 8.59733 21.7 9.7459 21.7H25.3649C26.4959 21.7 27.4566 20.77 27.7535 19.4215L31 4.65006H28.3772L25.3636 18.6H9.74465L6.45927 2.32506C6.32356 1.65737 6.01071 1.06534 5.57083 0.6438C5.13095 0.222256 4.58948 -0.00442204 4.03313 6.53656e-05H1.25253ZM23.798 21.7C21.7376 21.7 20.0404 23.8003 20.0404 26.35C20.0404 28.8998 21.7376 31 23.798 31C25.8584 31 27.5556 28.8998 27.5556 26.35C27.5556 23.8003 25.8584 21.7 23.798 21.7ZM12.5253 21.7C10.4648 21.7 8.76768 23.8003 8.76768 26.35C8.76768 28.8998 10.4648 31 12.5253 31C14.5857 31 16.2828 28.8998 16.2828 26.35C16.2828 23.8003 14.5857 21.7 12.5253 21.7ZM16.2828 6.53656e-05V7.75005H12.5253L17.5354 13.95L22.5455 7.75005H18.7879V6.53656e-05H16.2828ZM12.5253 24.8C13.2317 24.8 13.7778 25.4758 13.7778 26.35C13.7778 27.2242 13.2317 27.9 12.5253 27.9C11.8188 27.9 11.2727 27.2242 11.2727 26.35C11.2727 25.4758 11.8188 24.8 12.5253 24.8ZM23.798 24.8C24.5044 24.8 25.0505 25.4758 25.0505 26.35C25.0505 27.2242 24.5044 27.9 23.798 27.9C23.0916 27.9 22.5455 27.2242 22.5455 26.35C22.5455 25.4758 23.0916 24.8 23.798 24.8Z" fill="black"/>
</svg>