<svg width="49" height="33" viewBox="0 0 49 33" fill="none" xmlns="http://www.w3.org/2000/svg">
	<path opacity="0.5" d="M32.4487 32.2929C29.2552 32.2934 26.1333 31.3469 23.4778 29.5731C20.8222 27.7993 18.7523 25.2779 17.5298 22.3277C16.3073 19.3775 15.987 16.131 16.6096 12.9988C17.2321 9.8666 18.7695 6.98935 21.0273 4.73089C23.2851 2.47243 26.1619 0.934205 29.2939 0.310725C32.4259 -0.312755 35.6725 0.00651568 38.623 1.22816C41.5736 2.44981 44.0956 4.51897 45.8702 7.17398C47.6448 9.82898 48.5922 12.9506 48.5927 16.1441V16.1465C48.5883 20.427 46.886 24.531 43.8595 27.558C40.8329 30.585 36.7292 32.2878 32.4487 32.2929Z" fill="#F24E1E" />
	<path d="M16.7392 32.2929C13.5457 32.2929 10.424 31.3459 7.76868 29.5717C5.11341 27.7976 3.04388 25.2758 1.8218 22.3254C0.599708 19.3751 0.279955 16.1285 0.902969 12.9964C1.52598 9.86434 3.06378 6.98732 5.32191 4.72919C7.58003 2.47107 10.4571 0.933271 13.5892 0.310257C16.7213 -0.312758 19.9678 0.00699645 22.9182 1.22908C25.8685 2.45117 28.3903 4.5207 30.1645 7.17597C31.9387 9.83124 32.8856 12.953 32.8856 16.1465C32.8812 20.4274 31.1786 24.5317 28.1515 27.5588C25.1244 30.5859 21.0201 32.2885 16.7392 32.2929Z" fill="#F24E1E" />
</svg>
