<svg width="36" height="42" viewBox="0 0 36 42" fill="none" xmlns="http://www.w3.org/2000/svg">
	<path d="M30.3048 3.16693C28.36 0.950317 24.8446 0 20.3473 0H7.29494C6.84997 1.64759e-05 6.41961 0.158764 6.08122 0.447702C5.74283 0.736639 5.51861 1.13681 5.44887 1.57628L0.0141033 36.0449C-0.0939222 36.7246 0.432388 37.3401 1.12129 37.3401H9.17938L11.2031 24.5039L11.1403 24.9059C11.2845 23.9985 12.0605 23.3293 12.9794 23.3293H16.8086C24.331 23.3293 30.2212 20.2739 31.9418 11.4352C31.9929 11.1738 32.0371 10.9194 32.0753 10.6708C31.8582 10.5558 31.8582 10.5558 32.0753 10.6708C32.5877 7.40393 32.0719 5.1802 30.3048 3.16693" fill="#27346A" />
	<path d="M14.2864 9.49396C14.5067 9.38906 14.7477 9.3347 14.9917 9.33485H25.2245C26.4362 9.33485 27.5665 9.41371 28.5993 9.57993C28.8883 9.62601 29.1758 9.68103 29.4614 9.7449C29.8662 9.83423 30.2663 9.94355 30.6603 10.0725C31.168 10.242 31.6409 10.4395 32.0755 10.6708C32.5877 7.40268 32.0718 5.1802 30.3048 3.16693C28.3589 0.950317 24.8446 0 20.3473 0H7.29382C6.37477 0 5.59291 0.669088 5.44887 1.57628L0.0141041 36.0437C-0.0939214 36.7245 0.432389 37.3391 1.12018 37.3391H9.17938L13.378 10.7138C13.4193 10.4521 13.5235 10.2043 13.6818 9.99183C13.84 9.77934 14.0475 9.60848 14.2864 9.49396V9.49396Z" fill="#27346A" />
	<path d="M31.9418 11.4352C30.2212 20.2727 24.3311 23.3293 16.8086 23.3293H12.9783C12.0594 23.3293 11.2832 23.9986 11.1404 24.9059L8.62278 40.8662C8.52871 41.461 8.98872 42 9.59054 42H16.3833C16.7724 41.9999 17.1487 41.861 17.4446 41.6082C17.7404 41.3554 17.9363 41.0054 17.9971 40.6211L18.0633 40.275L19.3435 32.161L19.426 31.7126C19.4868 31.3283 19.6827 30.9783 19.9785 30.7255C20.2743 30.4728 20.6506 30.3338 21.0397 30.3337H22.0563C28.6365 30.3337 33.7889 27.6604 35.2946 19.9289C35.9231 16.6979 35.5979 14.0003 33.9354 12.1056C33.4311 11.5317 32.8049 11.0577 32.0753 10.6708C32.0358 10.9206 31.993 11.1738 31.9418 11.4352V11.4352Z" fill="#2790C3" />
	<path d="M30.2746 9.95287C30.0063 9.87453 29.7355 9.80517 29.4626 9.74491C29.1769 9.68208 28.8894 9.62744 28.6005 9.58106C27.5666 9.41372 26.4372 9.33472 25.2244 9.33472H14.9928C14.7486 9.33417 14.5075 9.389 14.2876 9.49508C14.0484 9.60926 13.8406 9.78001 13.6823 9.99256C13.524 10.2051 13.4199 10.4531 13.379 10.7149L11.2042 24.5039L11.1414 24.9059C11.2845 23.9986 12.0605 23.3293 12.9795 23.3293H16.8098C24.3322 23.3293 30.2223 20.2739 31.9429 11.4352C31.9941 11.1738 32.0371 10.9205 32.0766 10.6708C31.6409 10.4408 31.1693 10.2421 30.6614 10.0736C30.5332 10.0311 30.4043 9.99086 30.2748 9.95287" fill="#1F264F" />
</svg>
