<svg width="30" height="31" viewBox="0 0 30 31" fill="none" xmlns="http://www.w3.org/2000/svg">
<path d="M15 0C16.9891 0 18.8968 0.816515 20.3033 2.26992C21.7098 3.72333 22.5 5.69457 22.5 7.75C22.5 9.80543 21.7098 11.7767 20.3033 13.2301C18.8968 14.6835 16.9891 15.5 15 15.5C13.0109 15.5 11.1032 14.6835 9.6967 13.2301C8.29018 11.7767 7.5 9.80543 7.5 7.75C7.5 5.69457 8.29018 3.72333 9.6967 2.26992C11.1032 0.816515 13.0109 0 15 0ZM15 19.375C23.2875 19.375 30 22.8431 30 27.125V31H0V27.125C0 22.8431 6.7125 19.375 15 19.375Z" fill="black"/>
</svg>
