<svg width="100" height="100" viewBox="0 0 100 100" fill="none"
    xmlns="http://www.w3.org/2000/svg">
    <rect width="100" height="100" fill="white"/>
    <path d="M59.0735 51.238V62.2076H37.1342V40.2684H45.001C45.0793 39.1557 45.3457 38.1058 45.7532 37.1342H34V65.3418H62.2076V54.3722L59.0735 51.238ZM56.7228 59.0735H39.4848L43.7943 53.5416L46.8658 57.24L51.1753 51.6925L56.7228 59.0735ZM61.1107 44.7973C61.8002 43.7003 62.2076 42.4309 62.2076 41.0519C62.2076 37.1499 59.0578 34 55.1557 34C51.2537 34 48.1038 37.1499 48.1038 41.0519C48.1038 44.954 51.2537 48.1038 55.1401 48.1038C56.5191 48.1038 57.8041 47.6964 58.8854 47.0069L63.7747 51.8962L66 49.6709L61.1107 44.7973ZM55.1557 44.9696C54.1167 44.9696 53.1202 44.5569 52.3855 43.8222C51.6508 43.0874 51.238 42.091 51.238 41.0519C51.238 40.0129 51.6508 39.0164 52.3855 38.2817C53.1202 37.5469 54.1167 37.1342 55.1557 37.1342C56.1948 37.1342 57.1913 37.5469 57.926 38.2817C58.6607 39.0164 59.0735 40.0129 59.0735 41.0519C59.0735 42.091 58.6607 43.0874 57.926 43.8222C57.1913 44.5569 56.1948 44.9696 55.1557 44.9696Z" fill="black"/>
</svg>
